<?xml version="1.0" encoding="UTF-8" standalone="yes"?><svg xmlns="http://www.w3.org/2000/svg" xmlns:xlink="http://www.w3.org/1999/xlink" height="505px" style="width:168px;height:505px;" version="1.1" viewBox="0 0 168 505" width="168px"><defs><filter height="300%" id="f1" width="300%" x="-1" y="-1"><feGaussianBlur result="blurOut" stdDeviation="2.0"/><feColorMatrix in="blurOut" result="blurOut2" type="matrix" values="0 0 0 0 0 0 0 0 0 0 0 0 0 0 0 0 0 0 .4 0"/><feOffset dx="4.0" dy="4.0" in="blurOut2" result="blurOut3"/><feBlend in="SourceGraphic" in2="blurOut3" mode="normal"/></filter></defs><g><rect fill="#FEFECE" filter="url(#f1)" height="60.8047" style="stroke: #A80036; stroke-width: 1.5;" width="82" x="41.5" y="8"/><ellipse cx="65.95" cy="24" fill="#ADD1B2" rx="11" ry="11" style="stroke: #A80036; stroke-width: 1.0;"/><path d="M68.9188,29.6406 Q68.3406,29.9375 67.7,30.0859 Q67.0594,30.2344 66.3563,30.2344 Q63.8563,30.2344 62.5359,28.5859 Q61.2156,26.9375 61.2156,23.8125 Q61.2156,20.6875 62.5359,19.0313 Q63.8563,17.375 66.3563,17.375 Q67.0594,17.375 67.7078,17.5313 Q68.3563,17.6875 68.9188,17.9844 L68.9188,20.7031 Q68.2938,20.125 67.7,19.8516 Q67.1063,19.5781 66.4813,19.5781 Q65.1375,19.5781 64.45,20.6484 Q63.7625,21.7188 63.7625,23.8125 Q63.7625,25.9063 64.45,26.9766 Q65.1375,28.0469 66.4813,28.0469 Q67.1063,28.0469 67.7,27.7734 Q68.2938,27.5 68.9188,26.9219 L68.9188,29.6406 Z "/><text fill="#000000" font-family="sans-serif" font-size="12" lengthAdjust="spacingAndGlyphs" textLength="29" x="82.05" y="28.1543">User</text><line style="stroke: #A80036; stroke-width: 1.5;" x1="42.5" x2="122.5" y1="40" y2="40"/><text fill="#000000" font-family="sans-serif" font-size="11" lengthAdjust="spacingAndGlyphs" textLength="70" x="47.5" y="54.2104">String name</text><line style="stroke: #A80036; stroke-width: 1.5;" x1="42.5" x2="122.5" y1="60.8047" y2="60.8047"/><rect fill="#FEFECE" filter="url(#f1)" height="60.8047" style="stroke: #A80036; stroke-width: 1.5;" width="118" x="23.5" y="129"/><ellipse cx="67.75" cy="145" fill="#ADD1B2" rx="11" ry="11" style="stroke: #A80036; stroke-width: 1.0;"/><path d="M70.7188,150.6406 Q70.1406,150.9375 69.5,151.0859 Q68.8594,151.2344 68.1563,151.2344 Q65.6563,151.2344 64.3359,149.5859 Q63.0156,147.9375 63.0156,144.8125 Q63.0156,141.6875 64.3359,140.0313 Q65.6563,138.375 68.1563,138.375 Q68.8594,138.375 69.5078,138.5313 Q70.1563,138.6875 70.7188,138.9844 L70.7188,141.7031 Q70.0938,141.125 69.5,140.8516 Q68.9063,140.5781 68.2813,140.5781 Q66.9375,140.5781 66.25,141.6484 Q65.5625,142.7188 65.5625,144.8125 Q65.5625,146.9063 66.25,147.9766 Q66.9375,149.0469 68.2813,149.0469 Q68.9063,149.0469 69.5,148.7734 Q70.0938,148.5 70.7188,147.9219 L70.7188,150.6406 Z "/><text fill="#000000" font-family="sans-serif" font-size="12" lengthAdjust="spacingAndGlyphs" textLength="21" x="88.25" y="149.1543">Car</text><line style="stroke: #A80036; stroke-width: 1.5;" x1="24.5" x2="140.5" y1="161" y2="161"/><text fill="#000000" font-family="sans-serif" font-size="11" lengthAdjust="spacingAndGlyphs" textLength="106" x="29.5" y="175.2104">String licensePlate</text><line style="stroke: #A80036; stroke-width: 1.5;" x1="24.5" x2="140.5" y1="181.8047" y2="181.8047"/><rect fill="#FEFECE" filter="url(#f1)" height="73.6094" style="stroke: #A80036; stroke-width: 1.5;" width="153" x="6" y="250"/><ellipse cx="21" cy="266" fill="#ADD1B2" rx="11" ry="11" style="stroke: #A80036; stroke-width: 1.0;"/><path d="M23.9688,271.6406 Q23.3906,271.9375 22.75,272.0859 Q22.1094,272.2344 21.4063,272.2344 Q18.9063,272.2344 17.5859,270.5859 Q16.2656,268.9375 16.2656,265.8125 Q16.2656,262.6875 17.5859,261.0313 Q18.9063,259.375 21.4063,259.375 Q22.1094,259.375 22.7578,259.5313 Q23.4063,259.6875 23.9688,259.9844 L23.9688,262.7031 Q23.3438,262.125 22.75,261.8516 Q22.1563,261.5781 21.5313,261.5781 Q20.1875,261.5781 19.5,262.6484 Q18.8125,263.7188 18.8125,265.8125 Q18.8125,267.9063 19.5,268.9766 Q20.1875,270.0469 21.5313,270.0469 Q22.1563,270.0469 22.75,269.7734 Q23.3438,269.5 23.9688,268.9219 L23.9688,271.6406 Z "/><text fill="#000000" font-family="sans-serif" font-size="12" lengthAdjust="spacingAndGlyphs" textLength="121" x="35" y="270.1543">ParkingTransaction</text><line style="stroke: #A80036; stroke-width: 1.5;" x1="7" x2="158" y1="282" y2="282"/><text fill="#000000" font-family="sans-serif" font-size="11" lengthAdjust="spacingAndGlyphs" textLength="85" x="12" y="296.2104">DateTime start</text><text fill="#000000" font-family="sans-serif" font-size="11" lengthAdjust="spacingAndGlyphs" textLength="79" x="12" y="309.0151">DateTime end</text><line style="stroke: #A80036; stroke-width: 1.5;" x1="7" x2="158" y1="315.6094" y2="315.6094"/><rect fill="#FEFECE" filter="url(#f1)" height="112.0234" style="stroke: #A80036; stroke-width: 1.5;" width="107" x="29" y="384"/><ellipse cx="64.7" cy="400" fill="#ADD1B2" rx="11" ry="11" style="stroke: #A80036; stroke-width: 1.0;"/><path d="M67.6688,405.6406 Q67.0906,405.9375 66.45,406.0859 Q65.8094,406.2344 65.1063,406.2344 Q62.6063,406.2344 61.2859,404.5859 Q59.9656,402.9375 59.9656,399.8125 Q59.9656,396.6875 61.2859,395.0313 Q62.6063,393.375 65.1063,393.375 Q65.8094,393.375 66.4578,393.5313 Q67.1063,393.6875 67.6688,393.9844 L67.6688,396.7031 Q67.0438,396.125 66.45,395.8516 Q65.8563,395.5781 65.2313,395.5781 Q63.8875,395.5781 63.2,396.6484 Q62.5125,397.7188 62.5125,399.8125 Q62.5125,401.9063 63.2,402.9766 Q63.8875,404.0469 65.2313,404.0469 Q65.8563,404.0469 66.45,403.7734 Q67.0438,403.5 67.6688,402.9219 L67.6688,405.6406 Z "/><text fill="#000000" font-family="sans-serif" font-size="12" lengthAdjust="spacingAndGlyphs" textLength="29" x="83.3" y="404.1543">Area</text><line style="stroke: #A80036; stroke-width: 1.5;" x1="30" x2="135" y1="416" y2="416"/><text fill="#000000" font-family="sans-serif" font-size="11" lengthAdjust="spacingAndGlyphs" textLength="70" x="35" y="430.2104">String name</text><text fill="#000000" font-family="sans-serif" font-size="11" lengthAdjust="spacingAndGlyphs" textLength="77" x="35" y="443.0151">Long capacity</text><text fill="#000000" font-family="sans-serif" font-size="11" lengthAdjust="spacingAndGlyphs" textLength="57" x="35" y="455.8198">Long level</text><text fill="#000000" font-family="sans-serif" font-size="11" lengthAdjust="spacingAndGlyphs" textLength="85" x="35" y="468.6245">Double latitude</text><text fill="#000000" font-family="sans-serif" font-size="11" lengthAdjust="spacingAndGlyphs" textLength="95" x="35" y="481.4292">Double longitude</text><line style="stroke: #A80036; stroke-width: 1.5;" x1="30" x2="135" y1="488.0234" y2="488.0234"/><path d="M82.5,69.222 C82.5,87.396 82.5,110.564 82.5,128.745 " fill="none" style="stroke: #A80036; stroke-width: 1.0;"/><text fill="#000000" font-family="sans-serif" font-size="13" lengthAdjust="spacingAndGlyphs" textLength="8" x="73.7125" y="88.8462">1</text><text fill="#000000" font-family="sans-serif" font-size="13" lengthAdjust="spacingAndGlyphs" textLength="24" x="56.025" y="117.9556">0..n</text><path d="M82.5,190.242 C82.5,208.073 82.5,230.875 82.5,249.755 " fill="none" style="stroke: #A80036; stroke-width: 1.0;"/><text fill="#000000" font-family="sans-serif" font-size="13" lengthAdjust="spacingAndGlyphs" textLength="8" x="73.7125" y="209.8701">1</text><text fill="#000000" font-family="sans-serif" font-size="13" lengthAdjust="spacingAndGlyphs" textLength="24" x="56.3625" y="238.8983">0..n</text><path d="M82.5,324.168 C82.5,342.055 82.5,364.027 82.5,383.946 " fill="none" style="stroke: #A80036; stroke-width: 1.0;"/><text fill="#000000" font-family="sans-serif" font-size="13" lengthAdjust="spacingAndGlyphs" textLength="24" x="56.5125" y="343.6764">0..n</text><text fill="#000000" font-family="sans-serif" font-size="13" lengthAdjust="spacingAndGlyphs" textLength="8" x="73.9875" y="372.877">1</text></g></svg>